<?xml version="1.0" encoding="utf-8"?>
<!-- Generator: Adobe Illustrator 23.1.0, SVG Export Plug-In . SVG Version: 6.00 Build 0)  -->
<svg version="1.1" id="Layer_1" xmlns="http://www.w3.org/2000/svg" xmlns:xlink="http://www.w3.org/1999/xlink" x="0px" y="0px"
	 viewBox="0 0 2000 2000" style="enable-background:new 0 0 2000 2000;" xml:space="preserve">
<style type="text/css">
	.st0{fill:#FFC715;}
	.st1{fill:#B872AE;}
	.st2{fill:#73C3B4;}
	.st3{fill:#EE4524;}
	.st4{fill:#3C1A32;}
	.st5{fill:#FFFFFF;}
</style>
<path class="st0" d="M612,520.9c-8.8-6.9-32.7,2.8-42.2,4.9c-24.5,5.4-48.9,11.2-73.2,17.3c-82.8,20.7-164.8,43.9-246.8,67.8
	c-9.6,2.8-19.6,5.8-26.8,12.8c-16.2,15.6-7.5,36.5,2.1,52.7c27.6,46.7,56.4,92.6,84.9,138.8c3.8,6.2,7.8,12.6,13.5,17.2
	c28.3,22.4,62.1-22.4,77.7-41c59.2-70.5,126-138,182.1-212.2C590.2,569.9,627.2,533,612,520.9z M488,626.8
	c-28.7,34.2-62.9,65.4-93.1,97.9c-8,8.6-25.3,29.3-39.7,18.9c-2.9-2.1-5-5-6.9-7.9c-14.6-21.3-29.3-42.5-43.4-64
	c-4.9-7.5-9.4-17.1-1.1-24.3c3.7-3.2,8.8-4.6,13.7-5.9c41.9-11,83.9-21.7,126.2-31.3c12.5-2.8,24.9-5.5,37.5-8
	c4.9-1,17.1-5.4,21.6-2.3C510.4,605.6,491.5,622.6,488,626.8z"/>
<g>
	<path class="st1" d="M1200.4,1524.3c-3.8,2-9.1,3.7-11.8,0.3c-1.2-1.5-1.4-3.5-1.5-5.3c-2-27.9-3.9-55.8-5.9-83.7
		c-1.7-24.7,17.7-38.8,31.6-55.9c8.6-10.6,17.1-21.1,25.7-31.7c17.1-21.1,34.3-42.2,51.4-63.3c17.1-21.1,34.3-42.2,51.4-63.3
		c11.9-14.7,20.9-38.7,40.4-44.9c31.5-9.9,100.8,29,85.7,67.6c-6.8,17.4-25,34.3-36.8,48.4c-15.1,17.9-30.7,35.4-46.3,53
		c-6,6.8-12.4,13.4-17.9,20.5c-18.3,23.9-36.4,47.9-53.9,72.4c-11.6,16.1-21.9,35.5-38.4,47.2
		C1251.9,1501.3,1224.5,1511.9,1200.4,1524.3z"/>
	<path class="st0" d="M1182.1,1420.7c-1.5,4.8-1.2,10-0.8,15c2,27.9,3.9,55.8,5.9,83.7c0.1,1.9,0.3,3.9,1.5,5.3
		c2.7,3.3,8,1.6,11.8-0.3c24.1-12.5,51.5-23.1,73.7-38.8c2.5-1.8,4.9-3.8,7.1-5.9c0.5-6.4-1.3-13-5.1-18.1
		c-5.9-7.9-16.4-12.1-26.1-10.4c1.5-8.2-2.8-17.2-10.1-21.3c-7.3-4.1-17.2-2.9-23.4,2.7c-4.8-12.3-18.1-17.7-31.7-17.5
		C1183.7,1416.8,1182.7,1418.7,1182.1,1420.7z"/>
	<path class="st1" d="M1188.6,1524.7c2.7,3.3,8,1.6,11.8-0.3c11-5.7,22.7-11,34.2-16.6c-1.2-2.2-2.6-4.4-4.1-6.5
		c-5.7-7.9-12.7-14.9-21.1-19.7c-7.7-4.3-16.5-6.5-25.4-6.6c1,14.8,2.1,29.6,3.1,44.4C1187.3,1521.2,1187.5,1523.2,1188.6,1524.7z"
		/>
</g>
<g>
	<path class="st2" d="M1819,569.5c-15-13.3-54-7.5-72.4-7.4c-0.3,0-0.5,0-0.8,0c-0.9-9.7-1.9-19.3-3.2-29
		c-2.1-15.4-4.8-31.1-11.7-45.1c-1.6-3.3-3.6-6.7-6.7-8.6c-3.4-2.1-7.6-2.3-11.5-2.3c-18.6-0.1-58.4-2.3-72.3,13.2
		c-13.3,15-7.5,54-7.4,72.4c0,3.1,0.1,6.1,0.2,9.2c-20.8,3.5-41.4,8-61.7,13.4c-7.3,1.9-15.1,4.4-19.4,10.6c-3.4,4.8-3.9,11.1-4,17
		c-0.5,18.2,2.3,39,17.1,49.7c8,5.8,18.3,7.6,28.1,8.9c16.5,2.3,33.2,3.9,49.8,4.9c3.5,20.7,8,41.2,13.3,61.5
		c1.9,7.3,4.4,15.1,10.6,19.4c4.8,3.4,11.1,3.9,17,4c18.2,0.5,39-2.3,49.7-17.1c5.8-8,7.6-18.3,8.9-28.1c1.9-13.7,3.3-27.5,4.3-41.3
		c9.9-0.9,19.7-2,29.5-3.3c15.4-2.1,31.1-4.8,45.1-11.7c3.3-1.6,6.7-3.6,8.6-6.7c2.1-3.4,2.3-7.6,2.3-11.5
		C1832.3,623.2,1834.5,583.4,1819,569.5z"/>
</g>
<g>
	<path class="st2" d="M1780.6,1235.3c-21.3-2.7-47.1,0.1-57,1.1c-63.2,6.9-125.2,23.5-188.2,32.1c-33.7,4.6-26.6,57,7.2,52.4
		c0,0,120.7-16.5,120.8-16.5c34.4-4.7,69.1-5,103-13.7c12.8-3.3,37.1-8.3,43.4-22.2C1819.9,1246.6,1802.7,1238.1,1780.6,1235.3z"/>
	<path class="st2" d="M1679.6,1177.5c-7.8-20.7-34-30.3-53.8-21.8c-19.1,8.2-29,29-23.5,48.9c6.5,23.6,32.7,36.8,55.6,27
		c9.5-4.1,17.9-12.5,21.8-22.1C1684.1,1199.1,1683.5,1187.9,1679.6,1177.5z"/>
	<path class="st2" d="M1703,1348.4c-7.8-20.7-34-30.3-53.8-21.8c-19.1,8.2-29,29-23.5,48.9c6.5,23.6,32.7,36.8,55.6,27
		c9.5-4.1,17.9-12.5,21.8-22.1C1707.5,1370,1706.9,1358.8,1703,1348.4z"/>
</g>
<g>
	<path class="st2" d="M344.1,887.4c-4.3-0.6-9.4-0.6-15.4-0.7c-63-0.9-125.7,6.3-188.6,9.1c-28.1,1.2-24.4,85.1,3.7,83.8
		c0,0,100.4-4.5,100.5-4.5c23.7-1.1,47.5-2.1,71.2-3.2c12.9-0.6,33.3,3,43.6-6.7c13.8-12.9,9.9-47.3,3-62.7
		C357.5,892,352,888.6,344.1,887.4z"/>
	<path class="st2" d="M346.2,1021.4c0,0-21.4,0.9-21.4,0.9c-60.9,2.7-121.8,5.4-182.7,8.1c-28.1,1.2-24.4,85.1,3.7,83.8
		c0,0,100.4-4.5,100.5-4.5c24.7-1.1,51.6-2.4,77.2-3.4c17.4-0.7,35.9,1.2,42.8-18.5C371.7,1072.7,372.2,1020.1,346.2,1021.4z"/>
</g>
<g>
	<path class="st2" d="M996.2,1605.9c-37.5-99.9-164.6-146.4-259.9-105.5c-92.5,39.8-140.1,140.3-113.5,236.6
		c31.5,114.2,158.2,177.7,268.7,130.5c46.1-19.7,86.3-60.5,105.6-106.8C1018.1,1710.2,1015.1,1656.1,996.2,1605.9z"/>
	<path class="st3" d="M989.7,1590.9c-44-89.5-162.9-129.4-253.3-90.5l74.3,173.5L989.7,1590.9z"/>
	<path class="st0" d="M986.2,1782.4l-175.5-108.5l-102.3,178c52.8,33.4,120.6,42.3,183.2,15.5
		C930.2,1850.9,964.7,1819.4,986.2,1782.4z"/>
</g>
<g>
	<path class="st3" d="M1211.4,390c-20.8,71.4-41.8,143.4-47.8,217.6c-1.7,20.7-1.7,43.1,10.2,60c13.3,18.9,37.7,25.8,60.2,31.2
		c37.4,8.8,75,16.8,112.7,23.8c24.6,4.6,66.5,13,87.8-0.1c16-9.9,25.4-27.4,33.4-44.5c43.7-92.7,53.7-197.7,78-297.3
		c5.5-22.3,10.8-46.7,1.3-67.7c-8.6-19-27.6-30.9-46.1-40.4c-63.1-32.5-133.6-50.9-204.5-53.2c-7.2-0.2-14.6-0.3-21.4,2.2
		c-26.3,9.6-27.9,41.2-33.4,64C1233.4,320.7,1221.5,355.4,1211.4,390z"/>
	<path class="st2" d="M1273.4,331.4c-0.8,6.3-1.3,13.2,1.8,18.8c4.3,7.8,14,10.7,22.6,12.8c61.9,15.4,123.7,30.7,185.6,46.1
		c4.5,1.1,9.6,2.1,13.3-0.7c2.8-2.1,3.7-5.8,4.5-9.2c4.4-18.9,8.7-37.8,12.7-56.8c0.5-2.4,1-5,0-7.3c-1.2-2.5-3.9-3.9-6.4-5
		c-53.2-24.3-109.9-48.2-167.9-61.7c-20.4-4.7-41.1-11.4-54.3,9.1C1275.6,292.6,1275.6,314.1,1273.4,331.4z"/>
	<path class="st0" d="M1244.4,425c2.1,14.9,30.3,19,42.7,13.4c10.6-4.8,12.1-24.8,9.8-34.6c-2.7-11-24.7-18-35.5-14.1
		C1251.2,393.5,1242.6,412,1244.4,425z"/>
	<path class="st0" d="M1308.5,441.6c2.1,14.9,30.3,19,42.7,13.4c10.6-4.8,12.1-24.8,9.8-34.6c-2.7-11-24.7-18-35.5-14.1
		C1315.2,410.1,1306.7,428.6,1308.5,441.6z"/>
	<path class="st0" d="M1372.6,458.2c2.1,14.9,30.3,19,42.7,13.4c10.6-4.8,12.1-24.8,9.8-34.6c-2.7-11-24.7-18-35.5-14.1
		C1379.3,426.7,1370.8,445.2,1372.6,458.2z"/>
	<path class="st0" d="M1437.8,475.7c2.1,14.9,30.3,19,42.7,13.4c10.6-4.8,12.1-24.8,9.8-34.6c-2.7-11-24.7-18-35.5-14.1
		C1444.6,444.1,1436,462.6,1437.8,475.7z"/>
	<path class="st0" d="M1224.1,493.7c2.1,14.9,30.3,19,42.7,13.4c10.6-4.8,12.1-24.8,9.8-34.6c-2.7-11-24.7-18-35.5-14.1
		C1230.9,462.1,1222.3,480.6,1224.1,493.7z"/>
	<path class="st0" d="M1288.2,510.3c2.1,14.9,30.3,19,42.7,13.4c10.6-4.8,12.1-24.8,9.8-34.6c-2.7-11-24.7-18-35.5-14.1
		C1294.9,478.7,1286.4,497.3,1288.2,510.3z"/>
	<path class="st0" d="M1352.3,526.9c2.1,14.9,30.3,19,42.7,13.4c10.6-4.8,12.1-24.8,9.8-34.6c-2.7-11-24.7-18-35.5-14.1
		C1359,495.4,1350.5,513.9,1352.3,526.9z"/>
	<path class="st0" d="M1417.5,544.3c2.1,14.9,30.3,19,42.7,13.4c10.6-4.8,12.1-24.8,9.8-34.6c-2.7-11-24.7-18-35.5-14.1
		C1424.3,512.8,1415.8,531.3,1417.5,544.3z"/>
	<path class="st0" d="M1203.8,562.3c2.1,14.9,30.3,19,42.7,13.4c10.6-4.8,12.1-24.8,9.8-34.6c-2.7-11-24.7-18-35.5-14.1
		C1210.6,530.8,1202,549.3,1203.8,562.3z"/>
	<path class="st0" d="M1267.9,579c2.1,14.9,30.3,19,42.7,13.4c10.6-4.8,12.1-24.8,9.8-34.6c-2.7-11-24.7-18-35.5-14.1
		C1274.7,547.4,1266.1,565.9,1267.9,579z"/>
	<path class="st0" d="M1332,595.6c2.1,14.9,30.3,19,42.7,13.4c10.6-4.8,12.1-24.8,9.8-34.6c-2.7-11-24.7-18-35.5-14.1
		C1338.7,564,1330.2,582.5,1332,595.6z"/>
	<path class="st0" d="M1377.8,675.7c2.1,14.9,30.3,19,42.7,13.4c10.6-4.8,31.6-87.5,29.2-97.3c-2.7-11-24.7-18-35.5-14.1
		C1404,581.5,1376,662.7,1377.8,675.7z"/>
	<path class="st0" d="M1183.5,631c2.1,14.9,30.3,19,42.7,13.4c10.6-4.8,12.1-24.8,9.8-34.6c-2.7-11-24.7-18-35.5-14.1
		C1190.3,599.5,1181.7,618,1183.5,631z"/>
	<path class="st0" d="M1247.6,647.6c2.1,14.9,30.3,19,42.7,13.4c10.6-4.8,12.1-24.8,9.8-34.6c-2.7-11-24.7-18-35.5-14.1
		C1254.4,616.1,1245.8,634.6,1247.6,647.6z"/>
	<path class="st0" d="M1311.7,664.2c2.1,14.9,30.3,19,42.7,13.4c10.6-4.8,12.1-24.8,9.8-34.6c-2.7-11-24.7-18-35.5-14.1
		C1318.4,632.7,1309.9,651.2,1311.7,664.2z"/>
</g>
<g>
	<path class="st2" d="M564.2,424.4c-30.3-4.2-43.1-24.4-53.7-49.7c17.8-8.1,35.1-17.3,49.7-29.3c16.5-13.5-1.3-40.2-20.2-34.7
		c-28.7,8.4-56.1,26.3-82.7,40c-28.5,14.7-58.3,28.4-83.9,47.8c-7.5,5.7-6.7,22.1,5.6,20.6c17.6-2.1,34.6-6.6,51.3-12.2
		c5.4,14.7,7.3,29.3,6.8,45.4c-0.5,15.7-4,30.5-1.6,46.1c2.2,14.7,22.3,14,29.1,3.8c19.7-29.5,5-73.1-11.8-103.5
		c7.1-2.8,14.1-5.6,21.2-8.6c3.8-1.6,7.6-3.2,11.5-4.8c-1.1,40.3,31,85.6,72.6,84.6C583,469.4,591.2,428.1,564.2,424.4z"/>
</g>
<g>
	<path class="st3" d="M1731.4,837.5c10.6-8.5,141.4,10.1,147.2,23.1c5.8,13-47.6,261.2-57.7,271.3c-10.1,10.1-112.6-11.5-121.2-27.4
		C1691,1088.5,1716.9,849,1731.4,837.5z"/>
</g>
<g>
	<path class="st3" d="M1078.4,1204.7c-12.5,8-23.4,21.8-31.5,30.4c-18.8,19.9-37,40.5-56.3,59.8c0,0-86.2,86.3-86.2,86.3
		c-24.1,24.1,13.3,61.5,37.4,37.4c0,0,86.2-86.3,86.2-86.3c26.3-26.4,52.3-53.1,78.8-79.3c15.7-15.5,28.2-46.8-4.1-54.1
		C1094.2,1197.1,1086,1199.8,1078.4,1204.7z"/>
	<path class="st3" d="M1001.6,1224c-3.7-14-13-25-25.1-32.6c-24-15.1-58.4-4.5-71.9,19.5c-13.2,23.3-7,52.2,14.1,68.3
		c25,19.1,62,12.1,77.8-15.6C1003,1252,1004.9,1236.9,1001.6,1224z M975,1251.4c-8.4,14.8-28.2,18.5-41.5,8.4
		c-11.3-8.6-14.5-24-7.5-36.5c7.2-12.8,25.6-18.5,38.4-10.4c6.4,4,11.4,9.9,13.4,17.4C979.6,1237.2,978.5,1245.2,975,1251.4z"/>
	<path class="st3" d="M1141.5,1361.1c-3.7-14-13-25-25.1-32.6c-24-15.1-58.4-4.5-71.9,19.5c-13.2,23.3-7,52.2,14.1,68.3
		c25,19.1,62,12.1,77.8-15.6C1143,1389.1,1144.9,1374,1141.5,1361.1z M1115,1388.5c-8.4,14.8-28.2,18.5-41.5,8.4
		c-11.3-8.6-14.5-24-7.5-36.5c7.2-12.8,25.6-18.5,38.4-10.4c6.4,4,11.4,9.9,13.4,17.4C1119.5,1374.2,1118.5,1382.3,1115,1388.5z"/>
</g>
<g>
	<path class="st3" d="M1407.4,1410.1c0,0-93.8,327.6-88,343.4c5.8,15.9,343.4-268.4,343.4-268.4S1436.3,1397.1,1407.4,1410.1z"/>
	<path class="st0" d="M1502.4,1428.6c-44.7-13.8-84-23.4-95-18.5c0,0-8.5,29.8-20.3,71.8C1418.6,1485.6,1476,1483.8,1502.4,1428.6z"
		/>
</g>
<g>
	<path class="st0" d="M432.3,1360c-1.2-20.7-34.1-45-47.6-58.5c-0.2-0.2-0.4-0.4-0.6-0.6c6.4-7.7,12.7-15.6,18.8-23.6
		c9.8-12.9,19.2-26.3,24.4-41.6c1.2-3.6,2.2-7.5,1.4-11.2c-0.9-4-3.9-7.2-6.8-10.1c-13.6-13.7-41.1-44.5-62.6-43.2
		c-20.7,1.2-45,34.1-58.5,47.6c-2.2,2.3-4.4,4.6-6.6,6.9c-17.8-12.6-36.1-24.4-55-35.4c-6.8-3.9-14.3-7.9-22-6.5
		c-6,1.1-10.9,5.3-15.4,9.5c-13.8,13-26.9,30.2-23.9,48.9c1.6,10.2,7.8,18.9,14,27.1c10.4,13.8,21.4,27.1,32.9,40.1
		c-12.6,17.7-24.4,36-35.3,54.8c-3.9,6.8-7.9,14.3-6.5,22c1.1,6,5.3,10.9,9.5,15.4c13,13.8,30.2,26.9,48.9,23.9
		c10.2-1.6,18.9-7.8,27.1-14c11.4-8.7,22.6-17.7,33.5-27.1c7.9,6.6,15.9,13,24,19.2c12.9,9.8,26.3,19.2,41.6,24.4
		c3.6,1.2,7.5,2.2,11.2,1.4c4-0.9,7.2-3.9,10.1-6.8C402.8,1409,433.6,1381.5,432.3,1360z"/>
</g>
<g>
	<path class="st3" d="M646.2,267.3c19.9-10.9,45-16.7,55-8.3c10,8.3,53.3,228.3,48.3,241.6c-5,13.3-33.3,11.7-51.6,11.7
		c-18.3,0-35-146.6-43.3-148.3c-2.1-0.4-5.8,0.1-10.2,1.2c-16,3.8-31-9.2-28.9-25.5C618.8,312.4,626.9,277.9,646.2,267.3z"/>
	<path class="st0" d="M758.3,289.6c-2.8-7.2-3.6-15.3-2.4-21.7c6.2-32.8,41.5-48.9,70-57.4c74.6-22.2,101.6,47.6,82.6,109.5
		c-19.1,61.9-50.8,73-47.6,85.7c3.2,12.7,58.7-9.5,71.4,1.6c27.7,24.3,3.7,70.8-24.3,81.8c-30.7,12.1-75.3,7.8-101.1-13.5
		c-23.9-19.7-2.5-66.6,6.1-88.7c9.4-24.1,54.5-84.2,30.9-109.6c-5.9-6.4-16.6-6.1-24.2-1.8c-13.8,7.9-18.2,27.9-34.7,31.7
		C771.9,310.3,762.7,301,758.3,289.6z"/>
	<path class="st2" d="M993.9,255c4.5-2,9.3-5.3,14-3.8c8.8,2.7,5.4,16.4-1.2,22.8c-6.6,6.5-15.5,14.2-12.4,22.9
		c4.3,11.6,21.8,6.4,33.7,10.1c15.7,4.9,19.1,27.1,11.7,41.8c-7.3,14.8-21.4,24.9-32.1,37.3c-10.8,12.5-18.5,30.8-10.3,45.2
		c6.5,11.4,20.9,16,34,15.9c19-0.2,37-8,53.8-16.8c22.4-11.7,44.6-26.6,56.1-49.1c11.2-22.1,9.9-50.2-3.4-71.1
		c-13.3-21-38.1-34.1-62.9-33.3c11.8-14.7,19.5-32.6,22-51.3c1.4-10.6,1.1-22-4.4-31.2c-5.7-9.5-16-15.4-26.6-19
		c-32.6-11.2-64.8,1.8-90.5,22.4c-11.1,8.9-23,23.9-19,39C960.3,252.2,979.4,261.4,993.9,255z"/>
</g>
<g>
	<path class="st2" d="M1142.4,1537.2c-33.1-16.8-53.7,15.1-63.9,42.5c-9.2,24.6-11.8,51-10.2,77.1c-7.2,1.3-14.1,3.4-19.7,8.1
		c-3.9,3.2-2.1,8.7,1.5,11c0,0-0.1,0.1-0.1,0.1c0.2,0.1,0.4,0.1,0.6,0.2c0.4,0.2,0.8,0.3,1.3,0.5c6,2.2,12.3,2.6,18.7,2.1
		c0.5,3.4,1,6.9,1.7,10.3c8.2,45.1,30.5,84.9,41.3,128.8c2.6,10.7,20.7,11.7,22.6,0c3.8-22.9-3.5-44.2-9.7-66.1
		c-6.9-24.7-14.1-49.3-17.4-74.8c9.1,0.1,18-0.5,25.7-5.3c9.6-6,7.1-19.3-3-22.9c-7.9-2.9-16.3-1.8-24.7,0.2
		c-0.2-17.5,1.7-35,7.1-51.8c4-12.6,7.2-30.6,21.9-19.4c10.4,8,11.7,19.8,15,31.5c3.5,12.3,21.4,15.3,27.9,3.6
		C1194.5,1584.4,1168,1550.1,1142.4,1537.2z"/>
	<path class="st0" d="M1257,1729.8c-8.1-5.4-15.8-11.2-23.4-17.2c6.1-8.1,12.3-16.2,18.8-24c16.5-19.8-11.1-48.4-28.7-28.7
		c-7.3,8.2-14.6,16.6-21.7,25.1c-3.1-3-6.3-6-9.3-9.1c-17.7-18-44.8,9.3-27.6,27.6c4,4.3,8.2,8.4,12.4,12.6
		c-6.7,9.1-13.1,18.3-19,27.8c-14.9,24,21.7,44.5,37.4,21.9c4.7-6.8,9.4-13.6,14.1-20.3c8.5,7,17.1,13.9,25.9,20.6
		C1257,1781.9,1279.6,1744.9,1257,1729.8z"/>
</g>
<g>
	<path class="st3" d="M753.5,815.8c-4.4-1.6-9.1-2.7-13.7-3.3c-40.1-5.8-82.7,16.3-101,52.4c-22.6,44.5-8.7,99.5-25.6,146.4
		c-1.7,4.7-4,9.6-8.5,11.8c-18.5,9.1-15.2-43.9-15.9-51.7c-3.2-33.8-6.5-67.6-9.7-101.4c-1.1-11.1-2.2-22.6-7.5-32.4
		c-21.3-39.5-104.2-48.2-137.3-21.8c-23.1,18.4-11.5,60.5-9.8,85.3c4,59.3,7.1,118.4,6.1,177.9c-0.5,30.9,0.9,59.7,37.8,63.8
		c30.5,3.5,55.4-1.4,59.5-34.3c5-39.6,1.5-79.6-1.3-119.2c-0.3-4.6-4.3-74.2-3.9-74.2c3.8,0.6,5.2,3,7.2,6.4
		c6.1,10.1,8,22.7,9.5,34.2c3.2,23.5,0.6,47.7,4.3,71.1c5.1,32.1,3,74.1,26,99.7c16.1,17.8,45.6,24.1,67.3,13.6
		c26.8-13,23.1-48.9,26.8-74.2c6.7-45.1,12.9-90.8,22.9-135.4c0.8-3.5,2.2-7.6,5.7-8.5c3.5-0.9,6.8,2.3,8.5,5.4
		c4.6,8.3,4.7,18.3,4.4,27.7c-1,34.4-5.4,71.8-12.2,106.5c-2.8,14.5-6.1,29.2-4.7,43.9c1.4,14.7,8.6,29.8,21.7,36.6
		c10.3,5.3,22.7,4.9,34.1,3.1c13.3-2.1,27.7-6.7,34.5-18.3c5.5-9.4,4.7-21.1,3.9-32c-5.8-72.5-6.5-145.4-2.2-218
		c1-17.6,1.7-37.2-10-50.4C765.8,821.6,759.9,818.1,753.5,815.8z"/>
	<path class="st2" d="M1311.5,812.7c-10.5-6.8-23.1-10-35.5-11.5c-43-5.3-86.2,7.5-129.5,6.9c-22.5-0.3-48.4-3.1-64,13.1
		c-6.8,7-10.2,16.5-13,25.9c-3.2,11.1-5.7,22.9-3.3,34.3c5.3,25.7,30.1,27,50.9,21.4c26.8-7.2,33.7,6.1,28.8,30.2
		c-3.2,16.1-2.5,33.9-3.5,50.3c-2.6,43.9-11.8,91.3-1.4,134.9c9.2,38.4,56.4,33.6,82.8,17.4c7.6-4.6,14.1-11.5,16.7-19.9
		c10-33.6,4.4-71.3,3.8-105.7c-0.8-40.2-0.4-80.3,0.5-120.4c-0.5,20.2,57.4-2.7,64.3-6.8c12.1-7.2,22.2-19.5,23-33.6
		c0.8-13.5-7.1-26.5-18.1-34.5C1313.1,813.8,1312.3,813.3,1311.5,812.7z"/>
	<path class="st1" d="M1622.8,960.1c0.7-40.2,11.6-79.2,6.1-119.7c-3.3-24.5-31.9-33-53-32.7c-51,0.8-53.1,38.9-43.2,79.1
		c2.3,9.4,7.2,26.7,3.5,36c-4.9,12.6-33.8,7.9-43.8,8c-14.4,0.3-56.3,28.7-62.9,2.2c-1.2-4.8,0.1-9.8,1.3-14.6
		c5.1-19.6,26.7-69.1,6.3-86.9c-14.2-23.4-40.9-27.9-64.5-15.6c-38.5,20-32.9,78.2-30.7,114.1c1.3,21.7,3.9,43.3,6.5,64.9
		c3.1,25.2-0.8,50.4-2.8,75.6c-1.6,21.1-2.2,44.4,14,60.4c13.4,13.3,40.1,17.9,57.9,13.1c29.6-8,29-43.7,27.8-68.3
		c-1.7-35.2-18.4-69.1,31-73.1c12.1-1,53.5-8.6,60.2,5.2c2.6,5.3,1.9,11.5,0.8,17.3c-7.1,37.7-27.4,102.3,26.5,114.6
		c12.1,2.8,43.5,5.6,53-5.1c2.2-2.4,3.4-5.6,4.4-8.7c13-39.5,4.8-80.7,2.4-121.1C1622.8,990,1622.5,975,1622.8,960.1z"/>
	<path class="st0" d="M1093.4,1066.7c-16.1-37.9-32.8-76.4-45.8-115.4c-6.6-20-11.3-40.3-17.1-60.4c-10.1-34.8-21.4-66.4-59.5-78.3
		c-20.1-6.3-51.3-6.3-65.8,11.4c-18.5,22.4-26.8,52.5-37.8,78.9c-16.2,38.9-29.1,79-42.7,118.9c-9.5,28-42.7,84-27,113.2
		c17.3,32.1,71.1,19.8,91.1-2.4c10.4-11.5,17.5-28,31.9-35.3c16.9-8.6,70.8-19.9,83.2,0.8c9.1,15.2,7.3,34.8,25.1,43.7
		c19.9,9.9,82.4,2.7,82.5-26.8C1111.6,1098.8,1099.6,1081.2,1093.4,1066.7z M988.7,990.7c-9.1,8.1-71.7,12.1-70.7-4
		c1-16.2,24.2-83.2,37.4-83.8C976.6,901.8,997.8,982.6,988.7,990.7z"/>
	<path class="st0" d="M1093.4,1066.7c-16.1-37.9-32.8-76.4-45.8-115.4c-6.6-20-11.3-40.3-17.1-60.4c-10.1-34.8-21.4-66.4-59.5-78.3
		c-20.1-6.3-51.3-6.3-65.8,11.4c-18.5,22.4-26.8,52.5-37.8,78.9c-16.2,38.9-29.1,79-42.7,118.9c-9.5,28-42.7,84-27,113.2
		c17.3,32.1,71.1,19.8,91.1-2.4c10.4-11.5,17.5-28,31.9-35.3c16.9-8.6,70.8-19.9,83.2,0.8c9.1,15.2,7.3,34.8,25.1,43.7
		c19.9,9.9,82.4,2.7,82.5-26.8C1111.6,1098.8,1099.6,1081.2,1093.4,1066.7z M988.7,990.7c-9.1,8.1-71.7,12.1-70.7-4
		c1-16.2,24.2-83.2,37.4-83.8C976.6,901.8,997.8,982.6,988.7,990.7z"/>
</g>
<path class="st4" d="M369.5,799.7c-2-1.7-3.6-1.3-5.9-1.6c-1.9-0.3-3.7-1.1-5.3-2c-3.9-2.3-7,3.4-3.5,5.9c3.7,2.6,10.7,6,14.7,2.6
	C370.9,803.4,370.8,800.8,369.5,799.7z"/>
<path class="st4" d="M415.9,747c-1.9-1.1-4-1.9-6.1-2.3c-2-0.4-4.1,0.6-4.6,2.6c-0.5,1.8,0.6,4.3,2.6,4.6c1.7,0.2,3.3,0.6,4.8,1.4
	c1.9,0.9,2.9,1.5,5.1,1.1c1-0.2,1.8-1.3,1.8-2.4C419.4,749.4,418.1,748.2,415.9,747z"/>
<path class="st4" d="M459.8,700.5c-2.7-1.3-5.5-2.3-8.4-2.9c-4.6-0.9-6.6,6.2-2,7.1c2.4,0.5,4.8,1.2,7,2.3c2.3,1.1,4.2,2.9,6.9,2.2
	c1.1-0.3,2.2-1.5,2.1-2.8C465.3,703.3,462.5,701.8,459.8,700.5z"/>
<path class="st4" d="M501.1,650.3c-3-2.2-6.6-3.3-10.3-3.4c-4.9-0.1-5.9,7.2-1.2,8.5c2.1,0.6,3.5,1.7,4.8,3.4c2,2.6,6.3,1.7,8.1-0.5
	C504.7,655.5,503.7,652.3,501.1,650.3z"/>
<path class="st4" d="M549.6,596.8c-1.7-1.2-3.5-2.1-5.4-3c-1.8-0.8-3.7-0.8-5.1,0.7c-1.2,1.2-1.8,3.6-0.7,5.1
	c2.7,3.7,6.1,8.7,11.3,6.7c1.1-0.4,2.3-1.2,2.5-2.5C552.6,600.9,552.1,598.6,549.6,596.8z"/>
<path class="st4" d="M590.3,552.7c-1-4.4-5-7.4-8.7-9.7c-3.9-2.4-8.4,3.3-5,6.4c2.5,2.3,4,5.3,6.5,7.4
	C586.4,559.6,591.2,557.1,590.3,552.7z"/>
<g>
	<path class="st1" d="M1060.9,597.3c-112-150.1-425.4-69.1-436,123.2c-1.4,25.1-0.4,32,28.8,33.9c28.1,1.8,57.7-0.9,85.9-1.3
		c118.6-1.8,237.1-3.6,355.7-5.5C1103.5,696.1,1093.8,641.4,1060.9,597.3z M973.6,685.9c-56.9,0.8-113.8,1.6-170.7,2.4
		c-13.5,0.2-27.7,1.4-41.2,0.6c-14-0.8-14.5-3.9-13.8-14.9c5.1-84.7,155.5-120.4,209.2-54.3C972.9,639.1,977.5,663.2,973.6,685.9z"
		/>
	<path class="st4" d="M655.6,729.8c-1-4.2-6.7-2.8-7.1,1c-0.4,4.5-0.8,9.8,1.3,14c2.1,4.3,10.1,2.4,9.4-2.6
		C658.7,737.9,656.6,733.9,655.6,729.8z"/>
	<path class="st4" d="M724.3,724.6c-2.4-4.8-9.5-0.6-7.2,4.2c1.8,3.8,1.8,7.5,2.4,11.5c0.2,1.4,1.6,2.5,2.9,2.9
		c0.8,0.2,1.4,0.2,2.2,0c1.3-0.3,2.6-1.6,2.9-2.9C728.5,735,726.7,729.3,724.3,724.6z"/>
	<path class="st4" d="M808.9,724.1c-0.7-5.1-9.1-3.9-9,1.2c0.1,4.5,0,9.1,0.4,13.7c0.2,2.9,2.3,5.3,5.3,5.3c2.7,0,5.6-2.4,5.3-5.3
		C810.6,734,809.7,729,808.9,724.1z"/>
	<g>
		<polygon class="st4" points="879.6,729.2 879.6,729.2 879.6,729.2 		"/>
		<path class="st4" d="M884.7,719.8c-4.7-2.1-9.4,3.2-5.6,7.3c-0.4-0.4,0.5,0.8,0.1,0c0,0.1,0.2,0.9,0.3,1c0.1,0.4,0.1,0.8,0.2,1.1
			c0.2-0.5-0.2,0.4-0.3,0.7c-1,2.9,1.1,6.2,4,7c3,0.8,6.2-1,7-4C891.8,727.8,889.7,722.1,884.7,719.8z"/>
		<path class="st4" d="M879.5,729.3c0-0.1,0-0.1,0.1-0.1C879.5,728.6,879.5,728.7,879.5,729.3z"/>
	</g>
	<path class="st4" d="M958.8,720.9c-2.1-1.5-5.3-0.6-6.7,1.3c-1.4,1.9-1.7,5.2,0.4,6.9c1.7,1.3,1.9,1.9,2.6,3.8
		c0.9,2.4,3,4.2,5.8,3.8c2.4-0.4,4.8-2.5,4.6-5.2C964.9,726.9,962.4,723.4,958.8,720.9z"/>
	<path class="st4" d="M1026.4,722.8c-1.1-4.9-9.3-3.9-8.8,1.2c0.1,1.7,0.3,3.4,0.4,5.1c0.2,2.1,0.1,4.1,1.3,5.9
		c2.3,3.3,7.3,2.9,8.6-1.1C1029,730.5,1027.2,726.1,1026.4,722.8z"/>
	<path class="st4" d="M1081.1,721.3c-0.5-6.7-10-6.7-10.5,0c-0.2,2.9-0.4,5.8-0.6,8.6c-0.5,7.5,12.2,7.5,11.7,0L1081.1,721.3z"/>
</g>
<g>
	<path class="st1" d="M842.1,1258.2c1.8,1.6,3.6,3.2,5.3,4.9c3.5,3.5,5.9,8.6,4.8,13.4c-0.8,3.4-3.1,6.2-5.4,8.9
		c-121.6,143.8-260,274.2-395,405.3c-4.7,4.6-9.6,9.3-15.9,11.3c-10.9,3.5-22.5-2-32.2-8.1c-30.7-19.1-57.2-44.8-77.2-74.9
		c-6.8-10.3-13.1-22.3-10.8-34.5c1.6-8.6,7.3-15.7,13-22.4c81.2-96.5,184.4-171.7,276.7-257.6c33.8-31.4,66.1-64.3,101-94.6
		c25.9-22.4,36.2-15.2,62.6,2C791.6,1226.5,821.3,1240.1,842.1,1258.2z"/>
	<path class="st4" d="M349.4,1552.5c-5.3-0.8-7.3,6.2-2.2,8c1.6,0.6,3.1,1.6,4.3,2.8c1.8,1.8,3.2,4.4,6.4,4.2
		c1.4-0.1,3.2-0.7,3.8-2.2C364.7,1558.2,355.1,1553.4,349.4,1552.5z"/>
	<path class="st4" d="M427.1,1492.2c-4.5-1.3-8.3-4.2-12.7-5.5c-4.6-1.4-7.7,3.7-5.8,7.6c2.7,5.6,9.5,8.7,15,10.7
		c3.4,1.2,7.2-1.4,8.1-4.6C432.7,1496.8,430.5,1493.3,427.1,1492.2z"/>
	<path class="st4" d="M489,1440.9c-1.1-5.7-6.5-9.7-11.8-11.2c-5.1-1.5-7.8,5.6-3.5,8.4c2.6,1.7,3.5,4.3,5.1,7.1
		c1.3,2.4,4.5,3.4,6.9,2.3C488.4,1446.2,489.5,1443.7,489,1440.9z"/>
	<path class="st4" d="M553.3,1381.2c-1.7-1.5-3.5-2.8-5.4-4.1c-1.7-1.2-3.7-1.9-5.5-2.7c-4.3-2-7.8,2.7-5,6.4c1.3,1.6,2.4,3.4,4,4.7
		c1.7,1.5,3.4,3,5.3,4.2C551.8,1393.2,557.8,1385.4,553.3,1381.2z"/>
	<path class="st4" d="M613.9,1318.8c-2.1-1.5-4.2-3.1-6.3-4.6c-4.3-3.1-9.6,3.8-5.6,7.3l5.8,5.2c2.2,2,5.6,2,7.5-0.5
		C617.3,1323.7,616.4,1320.6,613.9,1318.8z"/>
	<path class="st4" d="M664.6,1266.2c-4.5,1.3-3.6,8.2,1.1,8.2c2.9,0,3.8,1.5,5.3,3.1c1.3,1.4,3.3,2.9,5.3,2.9c2.5,0,4.5-1.8,4.8-4.2
		C682.2,1267.7,671,1264.4,664.6,1266.2z"/>
	<path class="st4" d="M728.1,1222.9c-0.6-4-5.7-5.6-8.5-8.3c-2.9-2.8-8.3,0-7,4.1c0.9,2.7,2.3,5,4.4,7c2.3,2.2,6.4,3.9,9.3,1.7
		C727.8,1226.2,728.4,1224.9,728.1,1222.9z"/>
	<path class="st4" d="M740.1,1293.2c-24.4,22.9-41.8,54.1-63.8,79.6c-22.4,25.9-46.3,50.3-71.7,73.2
		c-54.9,49.5-113.5,95.3-170.4,142.5c-3.8,3.2,1.6,8.5,5.4,5.4c59.3-48.4,120.5-95.1,177.2-146.4c25.3-22.9,49.2-47.3,71.5-73.1
		c20.1-23.3,45.2-49.6,56.7-78.4C746.2,1293.1,742.1,1291.3,740.1,1293.2z"/>
</g>
<path class="st5" d="M196.3,812.8c-7.2-1.4-14.6-0.1-21.9,0.9c0-4.7-0.2-9.3-2.2-13.5c-1.2-2.5-4.4-1.8-5.8,0
	c-2.9,3.8-3.7,9.3-3.9,14.6c-4.3,0.5-8.4,1.3-12,3.6c-1.6,1.1-2.1,4,0,4.9c3.9,1.8,8,2.1,12.2,2c0.3,7.5,0.7,15.6,4.2,22.2
	c2.6,5,9.3,2.1,9.7-2.6c0.6-6.6-0.9-13.4-1.7-20.1c7.1-0.1,14.8,0.2,21.4-2.2C200.6,821,201.6,813.8,196.3,812.8z"/>
<path class="st5" d="M223.7,771.6c-5-1-10.2-0.1-15.3,0.6c0-3.3-0.1-6.5-1.6-9.5c-0.9-1.8-3.1-1.3-4,0c-2,2.7-2.6,6.5-2.7,10.2
	c-3,0.3-5.9,0.9-8.4,2.6c-1.1,0.7-1.5,2.8,0,3.5c2.7,1.3,5.6,1.5,8.5,1.4c0.2,5.2,0.5,10.9,2.9,15.5c1.8,3.5,6.5,1.5,6.8-1.8
	c0.4-4.6-0.6-9.4-1.2-14.1c5-0.1,10.3,0.1,15-1.6C226.7,777.4,227.4,772.4,223.7,771.6z"/>
<path class="st5" d="M1096,522.1c-5.7,0.1-11.3,1.8-17,3.1c-1.1-6.3-2.1-12.7-2.6-19.1c-0.4-5.7-8.3-5.7-8.8,0
	c-0.5,6-1.1,13.3-1,20.7c-6.4,0.3-12.8,0.2-19.1,0.8c-4.4,0.4-5.1,5.9-1,7.5c5.8,2.3,13.3,3.7,21.1,4c1,6,2.7,11.6,5.9,16.1
	c3.2,4.7,10.3,3,10.7-2.9c0.3-4.7-0.9-9.4-2.2-14c6.4-1,12.4-3,16.8-6.1C1102.9,529.3,1101.6,522.1,1096,522.1z"/>
<path class="st5" d="M1534.4,723.7c-4.3-0.2-8.6-0.3-12.9-0.2c-0.1-4.3-0.2-8.7-0.3-13c-0.2-7.2-10.9-7.1-11.1,0
	c-0.2,4.5-0.3,9-0.5,13.6c-7,0.5-14,1.2-20.9,1.8c-4.4,0.4-4.4,6.4,0,6.9c6.8,0.7,13.7,1.3,20.5,1.8c-0.4,5.9-1.6,13,0.5,18.3
	c2.5,6.3,13.9,10.8,15.5,1.4c0.4-2.5-1-4.9-3-5.8c-0.1-2.1-0.2-4.1-0.2-6.2c-0.1-2.4-0.1-4.7-0.2-7.1c4.2,0.1,8.4,0.1,12.6-0.2
	C1541.7,734.6,1541.7,724.2,1534.4,723.7z"/>
<path class="st5" d="M1599.9,735.6c-6.5-2-13.2,0.5-19.8,1.5c-0.9-4.5-1.2-7.9-5.3-10.6c-0.1,0-0.2,0-0.2,0
	c-3.8,2.4-4.9,6.9-4.7,11.8c-5.5,0.6-11,1-16.6,1c-3.7,0-4.9,6.2-0.9,6.7c6.3,0.9,12.6,1.5,19,1.5c1.1,3.9,2.4,7.6,3.5,10.2
	c2.7,6.4,13.4,3.8,10.7-3c-1-2.6-2-5.3-2.9-8c6.7-0.7,13.9-1.5,18.5-6.5C1602.6,738.7,1602,736.2,1599.9,735.6z"/>
<path class="st5" d="M1505,1353.3c-6.7-0.7-13.1,2.3-19.6,3.4c-1.5,0.3-3,0.5-4.5,0.7c-0.7-4.4-1.3-8.7-2-13.1
	c-0.7-4.3-8.1-3.4-7.7,1c0.3,4.3,0.7,8.6,1.1,12.8c-3.4,0.2-6.9,0.1-10.4-0.1c-3.4-0.2-4.1,5.1-0.8,5.9c3.4,0.8,7.5,1.6,11.8,2.2
	c0.3,5.1,0,9.9,4.1,13.5c1.4,1.3,3.3,1,4.4-0.6c2.7-4,2-8,1.2-12.3c9.6,0.1,19.1-1.8,24.8-8.2
	C1509.2,1356.6,1507.7,1353.6,1505,1353.3z"/>
<path class="st5" d="M574.3,1717c-10.1,0.7-19.9,1.5-29.8,1.9c0-0.3-0.1-0.6-0.1-1c-0.8-8.9,0.5-17.9-0.8-26.6
	c-0.4-2.5-3.6-2.2-4.8-0.6c-5.9,8-6.8,18.8-6.3,28.5c-6.7,0.1-13.4,0-20.2-0.4c-3.9-0.2-4.4,5.5-0.9,6.6c7.1,2.1,14.5,3.6,22.1,4.5
	c1,7.7,3.1,15.7,8.8,20.2c3.2,2.6,7.6,0.9,8-3.3c0.4-5.3-1.2-10.6-2.8-16c9.6,0.1,19.2-0.8,28.3-3.2
	C581.5,1726.1,580.5,1716.6,574.3,1717z"/>
<path class="st5" d="M584.4,1656c-3.3-1.6-6.8-2-10.4-2.3c-0.8-4.5-1.1-9-1.7-13.4c-0.5-3.5-6-3.1-6.8,0c-1,3.9-1.4,8.1-1.2,12.4
	l-11.6-1.3c-3.7-0.4-4.5,5.7-0.9,6.4c4.4,0.9,8.9,1.9,13.3,2.8c0.7,3.9,1.9,7.6,3.6,10.8c1,2,3.4,2.6,5.5,2.2
	c0.4-0.1,0.8-0.3,1.2-0.5c1.9-1.2,2.7-3.3,2.2-5.5c-0.3-1.6-0.8-3.1-1.2-4.6c2,0.3,4,0.6,6,0.3
	C585.8,1662.9,588.3,1657.9,584.4,1656z"/>
<path class="st5" d="M545.2,1230.7c2.4-2.9,0.7-6.6-2.9-7c-5.7-0.7-11.6,2.6-17.3,3.6c-1.9,0.3-3.9,0.6-5.8,0.7
	c-1.1-3.4-2.1-6.8-3.1-10.1c-1.4-5-8.4-2.8-7.6,2.1c0.5,2.7,0.8,5.4,1.2,8.1c-2.3-0.1-4.6-0.4-6.8-0.7c-6-0.9-8.7,8.1-2.6,9.3
	c3.6,0.7,7.1,1.1,10.7,1.3c0.8,5.9,1.8,11.8,3.5,17.5c2.1,7.3,12.3,4.1,11.2-3.1c-0.8-4.9-2.1-9.7-3.5-14.5c0.9-0.1,1.8-0.1,2.8-0.2
	C531.7,1236.8,540.5,1236.1,545.2,1230.7z"/>
<path class="st5" d="M605.1,255.8c-5.4-1.1-10.2,1.8-15.4,3c-1,0.2-2,0.3-3,0.5c-0.6-3.3-0.7-6.7-0.9-10c-0.2-3.8-5.4-4.6-6.6-0.9
	c-1.1,3.5-1.6,7.5-1.4,11.7c-3.6,0-7.1-0.3-10.7-0.9c-3.9-0.7-5.6,5-1.7,6c4.4,1.1,8.8,1.8,13.3,2.1c0.7,2.8,1.6,5.5,3,7.8
	c3.9,6.6,14.2,4.8,12.4-3.6c-0.4-1.7-2-2.6-3.6-2.7c-0.2,0-0.3,0-0.5-0.1c-0.1,0-0.1,0-0.2,0c-0.2-0.4-0.5-0.9-0.7-1.3
	c-0.1-0.1-0.1-0.2-0.1-0.4c0.2,0,0.3,0,0.5,0c6.2-0.7,13.8-1.4,17.3-7.1C607.7,258.5,606.9,256.1,605.1,255.8z"/>
<path class="st5" d="M1090.6,1467.2c-7.1,0.2-14.1,1.3-20.8,3c-1.8-3.2-3.7-6.2-5.2-8.5c-2.9-4.5-9.7-0.6-7.2,4.2
	c1.3,2.4,2.3,4.7,3.3,7.2c-3.2,1.2-6.3,2.5-9.4,4c-4.3,2.1-0.5,8.3,3.7,6.4c2.7-1.2,5.4-2.3,8.2-3.2c0.5,1.8,0.9,3.5,1.3,5.4
	c1.1,5.6,1.3,11.2,5,15.8c1.5,1.9,4.8,1.2,5.9-0.8c3.7-6.4,1.7-15.1-1.9-23.1c5.6-1.1,11.3-1.7,17.2-1.7
	C1096.1,1475.6,1096.1,1467,1090.6,1467.2z"/>
<path class="st5" d="M1309.3,1131.5c-6.2-2-13.2-0.8-19.7-0.5c-0.4-3.1-0.9-6.2-1.4-9.3c-0.8-5.7-10.1-4.3-10,1.3
	c0.1,2.8,0.2,5.7,0.3,8.5c-3.7,0.2-7.4,0.5-11,0.9c-5.1,0.6-5.2,7.4,0,8c3.8,0.4,7.7,0.7,11.5,0.9c0.2,2.8,0.3,5.7,0.6,8.5
	c0.4,4.1,1.3,11.8,7.2,11.1c6.4-0.7,5.1-9.7,4.7-13.8c-0.2-1.8-0.4-3.5-0.6-5.2c6.1,0.4,12.4,1.3,18.3-0.6
	C1314.2,1139.9,1314.2,1133.1,1309.3,1131.5z"/>
</svg>
